# AST/ASF file generated using VICON BodyLanguage
# -----------------------------------------------
:version 1.10
:name VICON
:units
  mass 1.0
  length 0.45
  angle deg
:documentation
   .ast/.asf automatically generated from VICON data using
   VICON BodyBuilder and BodyLanguage model FoxedUp or BRILLIANT.MOD
:root
   order TX TY TZ RX RY RZ
   axis XYZ
   position 0 0 0  
   orientation 0 0 0 
:bonedata
  begin
     id 1 
     name lhipjoint
     direction 0.78388 -0.462562 0.414208 
     length 3.01181 
     axis 0 0 0  XYZ
  end
  begin
     id 2 
     name lfemur
     direction 0.34202 -0.939693 0  
     length 6.04673  
     axis 0 0 20  XYZ
    dof rx ry rz
    limits (-160.0 20.0)
           (-70.0 70.0)
           (-60.0 70.0)
  end
  begin
     id 3 
     name ltibia
     direction 0.34202 -0.939693 0   
     length 7.211   
     axis 0 0 20   XYZ
    dof rx
    limits (-10.0 170.0)
  end
  begin
     id 4 
     name lfoot
     direction 0.121887 -0.334882 0.934344   
     length 2.13567   
     axis -90 7.62852e-016 20   XYZ
    dof rx rz
    limits (-45.0 90.0)
           (-70.0 20.0)
  end
  begin
     id 5 
     name ltoes
     direction 1.53555e-011 -4.2179e-011 1   
     length 1.05957   
     axis -90 7.62852e-016 20   XYZ
    dof rx
    limits (-90.0 20.0)
  end
  begin
     id 6 
     name rhipjoint
     direction -0.769387 -0.475875 0.426129   
     length 2.92756  
     axis 0 0 0  XYZ 
  end
  begin
     id 7 
     name rfemur
     direction -0.34202 -0.939693 0   
     length 6.35468   
     axis 0 0 -20   XYZ
    dof rx ry rz
    limits (-160.0 20.0)
           (-70.0 70.0)
           (-70.0 60.0)
  end
  begin
     id 8 
     name rtibia
     direction -0.34202 -0.939693 0   
     length 7.37886   
     axis 0 0 -20   XYZ
    dof rx
    limits (-10.0 170.0)
 end
 begin
     id 9 
     name rfoot
     direction -0.101763 -0.279592 0.954711   
     length 2.21478  
     axis -90 -7.62852e-016 -20   XYZ
    dof rx rz
    limits (-45.0 90.0)
           (-20.0 70.0)
  end
  begin
     id 10 
     name rtoes
     direction -1.53494e-011 -4.21851e-011 1   
     length 1.10506   
     axis -90 -7.62852e-016 -20   XYZ
    dof rx
    limits (-90.0 20.0)
  end
  begin
     id 11 
     name lowerback
     direction 0.00747405 0.999267 0.0375481   
     length 2.13259   
     axis 0 0 0   XYZ
    dof rx ry rz
    limits (-20.0 45.0)
           (-30.0 30.0)
           (-30.0 30.0)
  end
  begin
     id 12 
     name upperback
     direction 0.00661626 0.996177 0.0871029   
     length 2.10528   
     axis 0 0 0   XYZ
    dof rx ry rz
    limits (-20.0 45.0)
           (-30.0 30.0)
           (-30.0 30.0)
  end
  begin
     id 13 
     name thorax
     direction 0.00320659 0.997679 0.0680167   
     length 2.11338   
     axis 0 0 0   XYZ
    dof rx ry rz
    limits (-20.0 45.0)
           (-30.0 30.0)
           (-30.0 30.0)
  end
  begin
     id 14 
     name lowerneck
     direction 0.0374841 0.973033 0.227602   
     length 1.42765   
     axis 0 0 0   XYZ
    dof rx ry rz
    limits (-20.0 45.0)
           (-30.0 30.0)
           (-30.0 30.0)
  end
  begin
     id 15 
     name upperneck
     direction 0.00481585 0.989155 -0.146795   
     length 1.47593   
     axis 0 0 0   XYZ
    dof rx ry rz
    limits (-20.0 45.0)
           (-30.0 30.0)
           (-30.0 30.0)
  end
  begin
     id 16
     name head
     direction -0.00292522 0.997206 -0.0746423  
     length 1.48116  
     axis 0 0 0   XYZ
    dof rx ry rz
    limits (-20.0 45.0)
           (-30.0 30.0)
           (-30.0 30.0)
  end
  begin
     id 17 
     name lclavicle
     direction 0.951444 0.305606 0.0368784  
     length 3.01855  
     axis 0 0 0   XYZ
    dof ry rz
    limits (-20.0 10.0)
           (0.0 20.0)
  end
  begin
     id 18 
     name lhumerus
     direction 1 -4.48977e-011 2.61664e-027   
     length 5.52731   
     axis 180 -30 -90   XYZ
    dof rx ry rz
    limits (-60.0 90.0)
           (-90.0 90.0)
           (-90.0 90.0)
  end
  begin
     id 19
     name lradius
     direction 1 -4.48944e-011 8.22157e-027   
     length 3.11059   
     axis 180 -30 -90   XYZ
    dof rx
    limits (-10.0 170.0)
  end
  begin
     id 20
     name lwrist
     direction 1 -4.48976e-011 1.5779e-026   
     length 1.5553   
     axis -1.15221e-014 90 90   XYZ
    dof ry
    limits (-180.0 0.0)
 end
  begin
     id 21 
     name lhand
     direction 1 -4.49025e-011 3.1558e-026   
     length 0.419626   
     axis -2.01367e-014 90 90   XYZ
    dof rx rz
    limits (-90.0 90.0)
           (-45.0 45.0)
  end
  begin
     id 22 
     name lfingers
     direction 1 -4.4904e-011 6.31161e-026   
     length 0.338313   
     axis -4.02734e-014 90 90   XYZ
    dof rx
    limits (0.0 90.0)
  end
  begin
     id 23
     name lthumb
     direction 0.707107 -6.35004e-011 0.707107   
     length 0.485752   
     axis -90 45 2.85299e-015   XYZ
    dof rx rz
    limits (-45.0 45.0)
           (-45.0 45.0)
  end
  begin
     id 24 
     name rclavicle
     direction -0.968876 0.223791 0.105816   
     length 3.04177  
     axis 0 0 0   XYZ 
    dof ry rz
    limits (-10.0 20.0)
           (-20.0 0.0)
  end
  begin
     id 25 
     name rhumerus
     direction -1 -4.48962e-011 -1.01384e-027  
     length 5.25396   
     axis 180 30 90   XYZ
    dof rx ry rz
    limits (-90.0 60.0)
           (-90.0 90.0)
           (-90.0 90.0)
  end
  begin
     id 26 
     name rradius
     direction -1 -4.48955e-011 8.88542e-027   
     length 3.10567   
     axis 180 30 90   XYZ
    dof rx
    limits (-10.0 170.0)
  end
  begin
     id 27 
     name rwrist
     direction -1 -4.48994e-011 1.5779e-026   
     length 1.55283   
     axis -1.15221e-014 -90 -90   XYZ
    dof ry
    limits (-180.0 0.0)
  end
  begin
     id 28
     name rhand
     direction -1 -4.48891e-011 3.1558e-026   
     length 0.498676   
     axis -2.01367e-014 -90 -90   XYZ
    dof rx rz
    limits (-90.0 90.0)
           (-45.0 45.0)
  end
  begin
     id 29
     name rfingers
     direction -1 -4.48972e-011 6.31161e-026   
     length 0.402045   
     axis -4.02734e-014 -90 -90   XYZ
    dof rx
    limits (0.0 90.0)
  end
  begin
     id 30
     name rthumb
     direction -0.707107 -6.34849e-011 0.707107   
     length 0.577259   
     axis -90 -45 -2.85299e-015   XYZ
    dof rx rz
    limits (-45.0 45.0)
           (-45.0 45.0)
  end
:hierarchy
  begin
    root lhipjoint rhipjoint lowerback
    lhipjoint lfemur
    lfemur ltibia
    ltibia lfoot
    lfoot ltoes
    rhipjoint rfemur
    rfemur rtibia
    rtibia rfoot
    rfoot rtoes
    lowerback upperback
    upperback thorax
    thorax lowerneck lclavicle rclavicle
    lowerneck upperneck
    upperneck head
    lclavicle lhumerus
    lhumerus lradius
    lradius lwrist
    lwrist lhand lthumb
    lhand lfingers
    rclavicle rhumerus
    rhumerus rradius
    rradius rwrist
    rwrist rhand rthumb
    rhand rfingers
  end

#!OML:ASF H:\Pregnant\Project 1\Capture day 1\Session 1\femalepreg.ASF
:FULLY-SPECIFIED
:DEGREES
426
root 5.53036 16.0356 5.13581 76.8726 -90.639 -59.1378
lowerback -11.9102 0.829996 4.30014
upperback -5.5542 0.248617 3.75599
thorax 0.871208 -0.0397493 1.51424
lowerneck -22.0231 11.1898 11.856
upperneck 24.9131 15.5367 -12.6253
head 14.2391 6.21245 -3.92507
rclavicle -1.16538e-014 1.59028e-014
rhumerus -31.8473 15.0429 -86.3528
rradius 46.0339
rwrist -14.9483
rhand -21.5875 -20.2404
rfingers 7.12502
rthumb 4.80707 -50.1658
lclavicle -1.16538e-014 1.59028e-014
lhumerus -43.0426 1.16488 81.3311
lradius 31.3067
lwrist 49.4856
lhand -27.3248 -2.30715
lfingers 7.12502
lthumb -0.733788 27.6713
rfemur -29.1543 13.006 12.0596
rtibia 32.5585
rfoot -16.6246 -13.7073
rtoes -19.8009
lfemur -28.6613 -8.15071 -4.14605
ltibia 24.8785
lfoot 0.240554 7.90065
ltoes -26.0548
427
root 5.54697 16.0426 5.06959 95.9369 -90.4539 -78.1944
lowerback -11.8588 0.744384 4.73825
upperback -5.56225 0.0762872 4.02758
thorax 0.832664 -0.135287 1.5307
lowerneck -21.8106 11.3101 12.0694
upperneck 24.9224 15.7989 -13.0525
head 14.3134 6.29558 -4.08154
rclavicle 1.14798e-014 -2.38542e-014
rhumerus -31.4599 14.8333 -85.8372
rradius 44.8723
rwrist -15.0332
rhand -22.0495 -20.3339
rfingers 7.12502
rthumb 4.36098 -50.269
lclavicle 1.14798e-014 -2.38542e-014
lhumerus -43.206 0.536642 82.2157
lradius 31.1443
lwrist 49.5835
lhand -26.9479 -2.07381
lfingers 7.12502
lthumb -0.369809 27.9056
rfemur -29.0788 13.1286 12.4435
rtibia 32.392
rfoot -16.5155 -13.8922
rtoes -19.4051
lfemur -29.4128 -8.02777 -4.05658
ltibia 26.0047
lfoot 0.501727 8.74345
ltoes -24.1695
428
root 5.56336 16.0489 5.00597 126.788 -90.3844 -109.055
lowerback -11.7847 0.665592 5.15682
upperback -5.57722 -0.0814673 4.27904
thorax 0.773636 -0.223938 1.53957
lowerneck -21.5942 11.4132 12.2565
upperneck 24.944 16.0306 -13.4253
head 14.3805 6.37074 -4.2196
rclavicle 5.96354e-015 4.13472e-014
rhumerus -31.0926 14.5466 -85.3
rradius 43.6908
rwrist -15.1396
rhand -22.4389 -20.424
rfingers 7.12502
rthumb 3.98496 -50.3664
lclavicle 5.96354e-015 4.13472e-014
lhumerus -43.362 -0.168384 83.1421
lradius 30.9865
lwrist 49.5913
lhand -26.5162 -1.84242
lfingers 7.12502
lthumb 0.0471785 28.1373
rfemur -29.0023 13.2282 12.7966
rtibia 32.2495
rfoot -16.4283 -14.0455
rtoes -18.9827
lfemur -30.1192 -7.94722 -4.03137
ltibia 27.1081
lfoot 0.705273 9.69339
ltoes -22.3925
429
root 5.5795 16.0547 4.94472 154.074 -90.4455 -136.362
lowerback -11.6928 0.591142 5.54653
upperback -5.5971 -0.227 4.5129
thorax 0.699111 -0.306619 1.54852
lowerneck -21.3834 11.5052 12.427
upperneck 24.9845 16.241 -13.7549
head 14.4484 6.44046 -4.3431
rclavicle 3.57812e-015 2.70347e-014
rhumerus -30.7448 14.1944 -84.7524
rradius 42.5005
rwrist -15.2862
rhand -22.8233 -20.5465
rfingers 7.12502
rthumb 3.61375 -50.4957
lclavicle 3.57812e-015 2.70347e-014
lhumerus -43.5187 -0.944096 84.1066
lradius 30.8591
lwrist 49.5439
lhand -26.0177 -1.58943
lfingers 7.12502
lthumb 0.528663 28.3897
rfemur -28.9311 13.3064 13.1154
rtibia 32.1329
rfoot -16.3611 -14.1656
rtoes -18.5424
lfemur -30.781 -7.89403 -4.07537
ltibia 28.1898
lfoot 0.797259 10.6684
ltoes -20.8496
430
root 5.59543 16.0602 4.88572 168.864 -90.5684 -151.181
lowerback -11.5916 0.518768 5.90442
upperback -5.61794 -0.363707 4.73134
thorax 0.617955 -0.384712 1.56106
lowerneck -21.1821 11.5897 12.5858
upperneck 25.0364 16.4343 -14.0491
head 14.5164 6.50607 -4.45459
rclavicle 1.2921e-014 1.11319e-014
rhumerus -30.411 13.7802 -84.1947
rradius 41.3088
rwrist -15.4525
rhand -23.222 -20.7058
rfingers 7.12502
rthumb 3.22872 -50.6611
lclavicle 1.2921e-014 1.11319e-014
lhumerus -43.6713 -1.7648 85.093
lradius 30.7699
lwrist 49.4473
lhand -25.4555 -1.31674
lfingers 7.12502
lthumb 1.07159 28.6603
rfemur -28.8688 13.365 13.4028
rtibia 32.04
rfoot -16.3068 -14.26
rtoes -18.1104
lfemur -31.4051 -7.86143 -4.18703
ltibia 29.2572
lfoot 0.73193 11.5662
ltoes -19.6312
431
root 5.61142 16.0654 4.82864 176.323 -90.7061 -158.67
lowerback -11.4889 0.455333 6.23732
upperback -5.63785 -0.484224 4.9362
thorax 0.536694 -0.454517 1.5761
lowerneck -21.0124 11.6635 12.7167
upperneck 25.108 16.6082 -14.3007
head 14.5893 6.5644 -4.54848
rclavicle -6.06293e-015 -3.18055e-014
rhumerus -30.0889 13.2889 -83.6133
rradius 40.1242
rwrist -15.6123
rhand -23.6509 -20.8844
rfingers 7.12502
rthumb 2.81446 -50.8456
lclavicle -6.06293e-015 -3.18055e-014
lhumerus -43.8169 -2.64917 86.1138
lradius 30.7358
lwrist 49.3284
lhand -24.8221 -1.03561
lfingers 7.12502
lthumb 1.68336 28.9375
rfemur -28.8216 13.4074 13.6648
rtibia 31.9658
rfoot -16.2563 -14.3374
rtoes -17.7091
lfemur -32.0104 -7.83331 -4.35892
ltibia 30.3202
lfoot 0.480899 12.2678
ltoes -18.7085
432
root 5.6273 16.0705 4.77391 180.158 -90.8457 -162.535
lowerback -11.3881 0.401908 6.55559
upperback -5.65649 -0.588507 5.12455
thorax 0.457467 -0.51612 1.58469
lowerneck -20.8775 11.7253 12.8225
upperneck 25.1988 16.7613 -14.5161
head 14.6682 6.61399 -4.6281
rclavicle -6.41081e-015 1.59028e-014
rhumerus -29.7802 12.7089 -83.007
rradius 38.9471
rwrist -15.7144
rhand -24.1223 -21.0636
rfingers 7.12502
rthumb 2.35924 -51.0303
lclavicle -6.41081e-015 1.59028e-014
lhumerus -43.9599 -3.59141 87.1588
lradius 30.7676
lwrist 49.1809
lhand -24.1135 -0.757883
lfingers 7.12502
lthumb 2.36778 29.2087
rfemur -28.7857 13.4355 13.9019
rtibia 31.903
rfoot -16.2043 -14.4071
rtoes -17.3626
lfemur -32.6095 -7.81394 -4.58969
ltibia 31.3879
lfoot 0.0514027 12.7032
ltoes -18.023
433
root 5.64299 16.0757 4.72126 182.46 -90.9818 -164.859
lowerback -11.2909 0.357229 6.85933
upperback -5.67714 -0.678881 5.30434
thorax 0.377893 -0.570865 1.5947
lowerneck -20.7728 11.7782 12.9099
upperneck 25.3071 16.8999 -14.7081
head 14.7545 6.65664 -4.69841
rclavicle 1.24737e-014 -5.24792e-014
rhumerus -29.4933 12.0448 -82.3699
rradius 37.7855
rwrist -15.7243
rhand -24.6225 -21.2162
rfingers 7.12502
rthumb 1.87612 -51.1877
lclavicle 1.24737e-014 -5.24792e-014
lhumerus -44.1069 -4.56473 88.2204
lradius 30.8675
lwrist 48.9948
lhand -23.3351 -0.495157
lfingers 7.12502
lthumb 3.11948 29.4618
rfemur -28.7609 13.4578 14.1212
rtibia 31.8456
rfoot -16.1552 -14.4678
rtoes -17.0244
lfemur -33.2131 -7.7962 -4.86955
ltibia 32.4654
lfoot -0.522889 12.8384
ltoes -17.501
434
root 5.65837 16.0807 4.67091 183.936 -91.1199 -166.355
lowerback -11.1991 0.319448 7.15971
upperback -5.69574 -0.759168 5.47234
thorax 0.30309 -0.620588 1.59598
lowerneck -20.6953 11.8217 12.9699
upperneck 25.421 17.0228 -14.8695
head 14.8401 6.6924 -4.75485
rclavicle -9.93923e-016 -7.95139e-015
rhumerus -29.2279 11.3058 -81.7093
rradius 36.6471
rwrist -15.6321
rhand -25.185 -21.3558
rfingers 7.12502
rthumb 1.3329 -51.3314
lclavicle -9.93923e-016 -7.95139e-015
lhumerus -44.2536 -5.568 89.2837
lradius 31.0412
lwrist 48.7801
lhand -22.4749 -0.247006
lfingers 7.12502
lthumb 3.95014 29.6961
rfemur -28.7411 13.4703 14.325
rtibia 31.7917
rfoot -16.1058 -14.5271
rtoes -16.722
lfemur -33.8257 -7.79152 -5.19714
ltibia 33.5512
lfoot -1.18126 12.6976
ltoes -17.1079
435
root 5.6735 16.0854 4.62249 185.209 -91.2573 -167.648
lowerback -11.1073 0.289298 7.45715
upperback -5.71497 -0.828005 5.63286
thorax 0.227376 -0.664833 1.59295
lowerneck -20.6281 11.8582 13.0217
upperneck 25.5294 17.135 -15.0267
head 14.9229 6.72312 -4.81041
rclavicle -8.15017e-015 2.22639e-014
rhumerus -28.9885 10.4762 -81.021
rradius 35.5322
rwrist -15.4041
rhand -25.7539 -21.4754
rfingers 7.12502
rthumb 0.783459 -51.4537
lclavicle -8.15017e-015 2.22639e-014
lhumerus -44.3985 -6.57848 90.332
lradius 31.2756
lwrist 48.5173
lhand -21.5255 -0.00983164
lfingers 7.12502
lthumb 4.86698 29.9143
rfemur -28.7263 13.4859 14.5221
rtibia 31.7443
rfoot -16.0593 -14.5907
rtoes -16.4385
lfemur -34.4445 -7.79231 -5.56467
ltibia 34.6401
lfoot -1.86125 12.3379
ltoes -16.8537
436
root 5.68842 16.0894 4.57567 186.214 -91.394 -168.676
lowerback -11.0129 0.266901 7.75216
upperback -5.73018 -0.884563 5.77789
thorax 0.154113 -0.702847 1.57689
lowerneck -20.5736 11.8837 13.0542
upperneck 25.6255 17.2278 -15.1623
head 14.9949 6.74641 -4.85773
rclavicle 9.39258e-015 -4.6118e-014
rhumerus -28.779 9.5683 -80.3159
rradius 34.4533
rwrist -15.0656
rhand -26.3311 -21.5872
rfingers 7.12502
rthumb 0.225959 -51.5668
lclavicle 9.39258e-015 -4.6118e-014
lhumerus -44.5328 -7.59002 91.3419
lradius 31.5624
lwrist 48.2072
lhand -20.4665 0.226889
lfingers 7.12502
lthumb 5.88946 30.125
rfemur -28.7152 13.4986 14.7135
rtibia 31.7139
rfoot -16.0234 -14.6516
rtoes -16.1624
lfemur -35.0573 -7.80583 -5.97479
ltibia 35.7218
lfoot -2.52761 11.8362
ltoes -16.7897
